<svg version="1.2" xmlns="http://www.w3.org/2000/svg" viewBox="0 0 91 123" width="91" height="123">
	<title>seat-icon (1)-svg</title>
	<style>
		.s0 { fill: #004e93 } 
	</style>
	<g id="Layer">
		<path id="Layer" fill-rule="evenodd" class="s0" d="m60.7 0.4q1 0.4 1.8 1.2 0.8 0.7 1.2 1.7 0.4 1 0.4 2.1v12c0 1.5-0.6 2.9-1.6 3.8v0.1c-1 0.9-2.3 1.6-3.8 1.6h-27.4c-1.5 0-2.9-0.6-3.8-1.6h-0.1c-0.9-1-1.6-2.4-1.6-3.9v-12c0-0.7 0.2-1.4 0.5-2.1q0.4-0.9 1.1-1.7c0.5-0.5 1.1-0.9 1.8-1.2q1-0.4 2.1-0.4h27.4q1.2 0 2 0.4zm12.2 93.2c-0.9 1.7-1.7 3.7-2.2 5.8q-6.9-2.7-13.5-4.1-6.8-1.4-13.3-1.5-6.5 0-12.6 1.4-5.9 1.4-11.5 4.2-1.5-3.6-3.3-6.2c-1.3-1.9-2.6-3.5-4-4.6v-44.7c0-2 0.4-4 1.2-5.7 0.7-1.9 1.8-3.5 3.2-4.9 1.4-1.4 3.1-2.5 4.9-3.3 1.8-0.7 3.7-1.1 5.7-1.1h34.3c2.1 0 4 0.4 5.8 1.1 1.8 0.8 3.4 1.9 4.8 3.3 1.4 1.4 2.5 3 3.3 4.9 0.7 1.7 1.1 3.7 1.1 5.7v44.8c-1.4 1.3-2.8 2.9-3.9 4.9zm-43.2-35.5q1.9 3.9 3.2 8.2 1.3 4.4 2 9.2 0.7 4.9 0.8 10.3c0 0.6 0.2 1.2 0.6 1.6 0.5 0.4 1 0.7 1.7 0.7 0.6 0 1.2-0.3 1.6-0.7 0.5-0.4 0.7-1 0.7-1.6q0-5.8-0.8-11-0.7-5.1-2.1-9.8-1.5-4.7-3.5-8.9-2-4.2-4.5-8.1c-0.4-0.5-0.9-0.8-1.5-1-0.6-0.1-1.2 0-1.7 0.3l-0.1 0.1c-0.5 0.3-0.8 0.9-1 1.4-0.1 0.6 0 1.2 0.3 1.8h0.1q2.3 3.6 4.2 7.5zm26.5-2q-2 4.2-3.5 8.9-1.4 4.7-2.1 9.8-0.8 5.2-0.8 11c0 0.6 0.2 1.2 0.6 1.6h0.1c0.4 0.4 1 0.7 1.6 0.7 0.7 0 1.3-0.3 1.7-0.7 0.4-0.4 0.7-1 0.7-1.6q0-5.4 0.7-10.3 0.7-4.8 2.1-9.1 1.3-4.4 3.2-8.3 1.8-4 4.2-7.5c0.3-0.6 0.4-1.2 0.3-1.8-0.1-0.5-0.5-1.1-1-1.4v-0.1c-0.6-0.3-1.2-0.4-1.8-0.3-0.6 0.1-1.1 0.5-1.5 1q-2.5 3.9-4.5 8.1zm-43.1 41.6c1.2 1.8 2.3 4.1 3.2 6.9 0.2 0.6 0.7 1.1 1.2 1.3 0.6 0.3 1.2 0.3 1.8 0.1q0.1 0 0.2-0.1l0.2-0.1q5.6-3.2 11.7-4.7 6-1.5 12.5-1.5 6.5 0 13.5 1.6 7 1.7 14.3 4.8c0.6 0.2 1.3 0.2 1.8 0 0.6-0.3 1-0.7 1.3-1.3q0.1-0.2 0.1-0.3 0-0.2 0-0.3l0.1-0.1c0.2-2.8 1-5.3 2.1-7.3 1.3-2.2 3-3.8 4.8-4.8q1.1-0.5 2.1-0.7 0.9-0.2 1.8-0.1 0.9 0.2 1.6 0.6 0.7 0.5 1.3 1.3c1.1 1.5 1.7 3.9 1.7 7.3-0.1 3-0.7 6.8-2.1 11.5l-2.2 7.3c-0.3 1.1-0.5 2-0.7 2.7q-0.2 0.7-0.2 1v0.1q-0.1-0.1-0.2-0.1c-0.3 0-0.9 0-1.8 0h-0.5-0.1-74.4-1.4c-0.9 0-1.4 0-1.7 0.1q-0.1 0-0.1 0 0-0.1 0-0.1-0.1-0.3-0.2-1.1v-0.1c-0.2-0.8-0.4-1.7-0.7-2.8l-1.8-7.2c-0.1-0.5-0.3-1.2-0.5-1.9v-0.1c-0.8-2.8-1.6-5.9-1.8-8.8-0.2-2.8 0.3-5.5 1.9-7.6q0.5-0.6 1-1 0.5-0.4 1.1-0.6 0.5-0.2 1-0.2 0.6 0 1.2 0.1 0.6 0.1 1.1 0.4 0.5 0.2 1 0.5 0.2 0.3 0.5 0.5 0.2 0.1 0.5 0.3c1.3 1 2.6 2.5 3.8 4.5z"/>
	</g>
</svg>